<svg xmlns="http://www.w3.org/2000/svg" viewBox="0 0 1200 630" width="1200" height="630">
  <defs>
    <!-- Background gradient -->
    <linearGradient id="bgGrad" x1="0%" y1="0%" x2="100%" y2="100%">
      <stop offset="0%" style="stop-color:#0a0e14;stop-opacity:1" />
      <stop offset="50%" style="stop-color:#0d1117;stop-opacity:1" />
      <stop offset="100%" style="stop-color:#111820;stop-opacity:1" />
    </linearGradient>
    <!-- Green glow -->
    <radialGradient id="glowGreen" cx="50%" cy="50%" r="50%">
      <stop offset="0%" style="stop-color:#39d353;stop-opacity:0.15" />
      <stop offset="100%" style="stop-color:#39d353;stop-opacity:0" />
    </radialGradient>
    <!-- Blue glow -->
    <radialGradient id="glowBlue" cx="50%" cy="50%" r="50%">
      <stop offset="0%" style="stop-color:#58a6ff;stop-opacity:0.1" />
      <stop offset="100%" style="stop-color:#58a6ff;stop-opacity:0" />
    </radialGradient>
    <!-- Top accent gradient line -->
    <linearGradient id="accentLine" x1="0%" y1="0%" x2="100%" y2="0%">
      <stop offset="0%" style="stop-color:#39d353;stop-opacity:0" />
      <stop offset="30%" style="stop-color:#39d353;stop-opacity:1" />
      <stop offset="70%" style="stop-color:#58a6ff;stop-opacity:1" />
      <stop offset="100%" style="stop-color:#58a6ff;stop-opacity:0" />
    </linearGradient>
    <!-- Bottom accent gradient line -->
    <linearGradient id="bottomLine" x1="0%" y1="0%" x2="100%" y2="0%">
      <stop offset="0%" style="stop-color:#58a6ff;stop-opacity:0" />
      <stop offset="30%" style="stop-color:#58a6ff;stop-opacity:0.5" />
      <stop offset="70%" style="stop-color:#39d353;stop-opacity:0.5" />
      <stop offset="100%" style="stop-color:#39d353;stop-opacity:0" />
    </linearGradient>
  </defs>

  <!-- Background -->
  <rect width="1200" height="630" fill="url(#bgGrad)" />

  <!-- Dot grid pattern -->
  <g opacity="0.08">
    <!-- Row-based dot grid for subtle texture -->
    <g fill="#58a6ff">
      <!-- Generate dots in a grid pattern -->
      <circle cx="40" cy="40" r="1.2"/><circle cx="80" cy="40" r="1.2"/><circle cx="120" cy="40" r="1.2"/><circle cx="160" cy="40" r="1.2"/><circle cx="200" cy="40" r="1.2"/><circle cx="240" cy="40" r="1.2"/><circle cx="280" cy="40" r="1.2"/><circle cx="320" cy="40" r="1.2"/><circle cx="360" cy="40" r="1.2"/><circle cx="400" cy="40" r="1.2"/><circle cx="440" cy="40" r="1.2"/><circle cx="480" cy="40" r="1.2"/><circle cx="520" cy="40" r="1.2"/><circle cx="560" cy="40" r="1.2"/><circle cx="600" cy="40" r="1.2"/><circle cx="640" cy="40" r="1.2"/><circle cx="680" cy="40" r="1.2"/><circle cx="720" cy="40" r="1.2"/><circle cx="760" cy="40" r="1.2"/><circle cx="800" cy="40" r="1.2"/><circle cx="840" cy="40" r="1.2"/><circle cx="880" cy="40" r="1.2"/><circle cx="920" cy="40" r="1.2"/><circle cx="960" cy="40" r="1.2"/><circle cx="1000" cy="40" r="1.2"/><circle cx="1040" cy="40" r="1.2"/><circle cx="1080" cy="40" r="1.2"/><circle cx="1120" cy="40" r="1.2"/><circle cx="1160" cy="40" r="1.2"/>
      <circle cx="40" cy="80" r="1.2"/><circle cx="80" cy="80" r="1.2"/><circle cx="120" cy="80" r="1.2"/><circle cx="160" cy="80" r="1.2"/><circle cx="200" cy="80" r="1.2"/><circle cx="240" cy="80" r="1.2"/><circle cx="280" cy="80" r="1.2"/><circle cx="320" cy="80" r="1.2"/><circle cx="360" cy="80" r="1.2"/><circle cx="400" cy="80" r="1.2"/><circle cx="440" cy="80" r="1.2"/><circle cx="480" cy="80" r="1.2"/><circle cx="520" cy="80" r="1.2"/><circle cx="560" cy="80" r="1.2"/><circle cx="600" cy="80" r="1.2"/><circle cx="640" cy="80" r="1.2"/><circle cx="680" cy="80" r="1.2"/><circle cx="720" cy="80" r="1.2"/><circle cx="760" cy="80" r="1.2"/><circle cx="800" cy="80" r="1.2"/><circle cx="840" cy="80" r="1.2"/><circle cx="880" cy="80" r="1.2"/><circle cx="920" cy="80" r="1.2"/><circle cx="960" cy="80" r="1.2"/><circle cx="1000" cy="80" r="1.2"/><circle cx="1040" cy="80" r="1.2"/><circle cx="1080" cy="80" r="1.2"/><circle cx="1120" cy="80" r="1.2"/><circle cx="1160" cy="80" r="1.2"/>
      <circle cx="40" cy="120" r="1.2"/><circle cx="80" cy="120" r="1.2"/><circle cx="120" cy="120" r="1.2"/><circle cx="160" cy="120" r="1.2"/><circle cx="200" cy="120" r="1.2"/><circle cx="240" cy="120" r="1.2"/><circle cx="280" cy="120" r="1.2"/><circle cx="320" cy="120" r="1.2"/><circle cx="360" cy="120" r="1.2"/><circle cx="400" cy="120" r="1.2"/><circle cx="440" cy="120" r="1.2"/><circle cx="480" cy="120" r="1.2"/><circle cx="520" cy="120" r="1.2"/><circle cx="560" cy="120" r="1.2"/><circle cx="600" cy="120" r="1.2"/><circle cx="640" cy="120" r="1.2"/><circle cx="680" cy="120" r="1.2"/><circle cx="720" cy="120" r="1.2"/><circle cx="760" cy="120" r="1.2"/><circle cx="800" cy="120" r="1.2"/><circle cx="840" cy="120" r="1.2"/><circle cx="880" cy="120" r="1.2"/><circle cx="920" cy="120" r="1.2"/><circle cx="960" cy="120" r="1.2"/><circle cx="1000" cy="120" r="1.2"/><circle cx="1040" cy="120" r="1.2"/><circle cx="1080" cy="120" r="1.2"/><circle cx="1120" cy="120" r="1.2"/><circle cx="1160" cy="120" r="1.2"/>
      <circle cx="40" cy="160" r="1.2"/><circle cx="80" cy="160" r="1.2"/><circle cx="120" cy="160" r="1.2"/><circle cx="160" cy="160" r="1.2"/><circle cx="200" cy="160" r="1.2"/><circle cx="240" cy="160" r="1.2"/><circle cx="280" cy="160" r="1.2"/><circle cx="320" cy="160" r="1.2"/><circle cx="360" cy="160" r="1.2"/><circle cx="400" cy="160" r="1.2"/><circle cx="440" cy="160" r="1.2"/><circle cx="480" cy="160" r="1.2"/><circle cx="520" cy="160" r="1.2"/><circle cx="560" cy="160" r="1.2"/><circle cx="600" cy="160" r="1.2"/><circle cx="640" cy="160" r="1.2"/><circle cx="680" cy="160" r="1.2"/><circle cx="720" cy="160" r="1.2"/><circle cx="760" cy="160" r="1.2"/><circle cx="800" cy="160" r="1.2"/><circle cx="840" cy="160" r="1.2"/><circle cx="880" cy="160" r="1.2"/><circle cx="920" cy="160" r="1.2"/><circle cx="960" cy="160" r="1.2"/><circle cx="1000" cy="160" r="1.2"/><circle cx="1040" cy="160" r="1.2"/><circle cx="1080" cy="160" r="1.2"/><circle cx="1120" cy="160" r="1.2"/><circle cx="1160" cy="160" r="1.2"/>
      <circle cx="40" cy="200" r="1.2"/><circle cx="80" cy="200" r="1.2"/><circle cx="120" cy="200" r="1.2"/><circle cx="160" cy="200" r="1.2"/><circle cx="200" cy="200" r="1.2"/><circle cx="240" cy="200" r="1.2"/><circle cx="280" cy="200" r="1.2"/><circle cx="320" cy="200" r="1.2"/><circle cx="360" cy="200" r="1.2"/><circle cx="400" cy="200" r="1.2"/><circle cx="440" cy="200" r="1.2"/><circle cx="480" cy="200" r="1.2"/><circle cx="520" cy="200" r="1.2"/><circle cx="560" cy="200" r="1.2"/><circle cx="600" cy="200" r="1.2"/><circle cx="640" cy="200" r="1.2"/><circle cx="680" cy="200" r="1.2"/><circle cx="720" cy="200" r="1.2"/><circle cx="760" cy="200" r="1.2"/><circle cx="800" cy="200" r="1.2"/><circle cx="840" cy="200" r="1.2"/><circle cx="880" cy="200" r="1.2"/><circle cx="920" cy="200" r="1.2"/><circle cx="960" cy="200" r="1.2"/><circle cx="1000" cy="200" r="1.2"/><circle cx="1040" cy="200" r="1.2"/><circle cx="1080" cy="200" r="1.2"/><circle cx="1120" cy="200" r="1.2"/><circle cx="1160" cy="200" r="1.2"/>
      <circle cx="40" cy="240" r="1.2"/><circle cx="80" cy="240" r="1.2"/><circle cx="120" cy="240" r="1.2"/><circle cx="160" cy="240" r="1.2"/><circle cx="200" cy="240" r="1.2"/><circle cx="240" cy="240" r="1.2"/><circle cx="280" cy="240" r="1.2"/><circle cx="320" cy="240" r="1.2"/><circle cx="360" cy="240" r="1.2"/><circle cx="400" cy="240" r="1.2"/><circle cx="440" cy="240" r="1.2"/><circle cx="480" cy="240" r="1.2"/><circle cx="520" cy="240" r="1.2"/><circle cx="560" cy="240" r="1.2"/><circle cx="600" cy="240" r="1.2"/><circle cx="640" cy="240" r="1.2"/><circle cx="680" cy="240" r="1.2"/><circle cx="720" cy="240" r="1.2"/><circle cx="760" cy="240" r="1.2"/><circle cx="800" cy="240" r="1.2"/><circle cx="840" cy="240" r="1.2"/><circle cx="880" cy="240" r="1.2"/><circle cx="920" cy="240" r="1.2"/><circle cx="960" cy="240" r="1.2"/><circle cx="1000" cy="240" r="1.2"/><circle cx="1040" cy="240" r="1.2"/><circle cx="1080" cy="240" r="1.2"/><circle cx="1120" cy="240" r="1.2"/><circle cx="1160" cy="240" r="1.2"/>
      <circle cx="40" cy="280" r="1.2"/><circle cx="80" cy="280" r="1.2"/><circle cx="120" cy="280" r="1.2"/><circle cx="160" cy="280" r="1.2"/><circle cx="200" cy="280" r="1.2"/><circle cx="240" cy="280" r="1.2"/><circle cx="280" cy="280" r="1.2"/><circle cx="320" cy="280" r="1.2"/><circle cx="360" cy="280" r="1.2"/><circle cx="400" cy="280" r="1.2"/><circle cx="440" cy="280" r="1.2"/><circle cx="480" cy="280" r="1.2"/><circle cx="520" cy="280" r="1.2"/><circle cx="560" cy="280" r="1.2"/><circle cx="600" cy="280" r="1.2"/><circle cx="640" cy="280" r="1.2"/><circle cx="680" cy="280" r="1.2"/><circle cx="720" cy="280" r="1.2"/><circle cx="760" cy="280" r="1.2"/><circle cx="800" cy="280" r="1.2"/><circle cx="840" cy="280" r="1.2"/><circle cx="880" cy="280" r="1.2"/><circle cx="920" cy="280" r="1.2"/><circle cx="960" cy="280" r="1.2"/><circle cx="1000" cy="280" r="1.2"/><circle cx="1040" cy="280" r="1.2"/><circle cx="1080" cy="280" r="1.2"/><circle cx="1120" cy="280" r="1.2"/><circle cx="1160" cy="280" r="1.2"/>
      <circle cx="40" cy="320" r="1.2"/><circle cx="80" cy="320" r="1.2"/><circle cx="120" cy="320" r="1.2"/><circle cx="160" cy="320" r="1.2"/><circle cx="200" cy="320" r="1.2"/><circle cx="240" cy="320" r="1.2"/><circle cx="280" cy="320" r="1.2"/><circle cx="320" cy="320" r="1.2"/><circle cx="360" cy="320" r="1.2"/><circle cx="400" cy="320" r="1.2"/><circle cx="440" cy="320" r="1.2"/><circle cx="480" cy="320" r="1.2"/><circle cx="520" cy="320" r="1.2"/><circle cx="560" cy="320" r="1.2"/><circle cx="600" cy="320" r="1.2"/><circle cx="640" cy="320" r="1.2"/><circle cx="680" cy="320" r="1.2"/><circle cx="720" cy="320" r="1.2"/><circle cx="760" cy="320" r="1.2"/><circle cx="800" cy="320" r="1.2"/><circle cx="840" cy="320" r="1.2"/><circle cx="880" cy="320" r="1.2"/><circle cx="920" cy="320" r="1.2"/><circle cx="960" cy="320" r="1.2"/><circle cx="1000" cy="320" r="1.2"/><circle cx="1040" cy="320" r="1.2"/><circle cx="1080" cy="320" r="1.2"/><circle cx="1120" cy="320" r="1.2"/><circle cx="1160" cy="320" r="1.2"/>
      <circle cx="40" cy="360" r="1.2"/><circle cx="80" cy="360" r="1.2"/><circle cx="120" cy="360" r="1.2"/><circle cx="160" cy="360" r="1.2"/><circle cx="200" cy="360" r="1.2"/><circle cx="240" cy="360" r="1.2"/><circle cx="280" cy="360" r="1.2"/><circle cx="320" cy="360" r="1.2"/><circle cx="360" cy="360" r="1.2"/><circle cx="400" cy="360" r="1.2"/><circle cx="440" cy="360" r="1.2"/><circle cx="480" cy="360" r="1.2"/><circle cx="520" cy="360" r="1.2"/><circle cx="560" cy="360" r="1.2"/><circle cx="600" cy="360" r="1.2"/><circle cx="640" cy="360" r="1.2"/><circle cx="680" cy="360" r="1.2"/><circle cx="720" cy="360" r="1.2"/><circle cx="760" cy="360" r="1.2"/><circle cx="800" cy="360" r="1.2"/><circle cx="840" cy="360" r="1.2"/><circle cx="880" cy="360" r="1.2"/><circle cx="920" cy="360" r="1.2"/><circle cx="960" cy="360" r="1.2"/><circle cx="1000" cy="360" r="1.2"/><circle cx="1040" cy="360" r="1.2"/><circle cx="1080" cy="360" r="1.2"/><circle cx="1120" cy="360" r="1.2"/><circle cx="1160" cy="360" r="1.2"/>
      <circle cx="40" cy="400" r="1.2"/><circle cx="80" cy="400" r="1.2"/><circle cx="120" cy="400" r="1.2"/><circle cx="160" cy="400" r="1.2"/><circle cx="200" cy="400" r="1.2"/><circle cx="240" cy="400" r="1.2"/><circle cx="280" cy="400" r="1.2"/><circle cx="320" cy="400" r="1.2"/><circle cx="360" cy="400" r="1.2"/><circle cx="400" cy="400" r="1.2"/><circle cx="440" cy="400" r="1.2"/><circle cx="480" cy="400" r="1.2"/><circle cx="520" cy="400" r="1.2"/><circle cx="560" cy="400" r="1.2"/><circle cx="600" cy="400" r="1.2"/><circle cx="640" cy="400" r="1.2"/><circle cx="680" cy="400" r="1.2"/><circle cx="720" cy="400" r="1.2"/><circle cx="760" cy="400" r="1.2"/><circle cx="800" cy="400" r="1.2"/><circle cx="840" cy="400" r="1.2"/><circle cx="880" cy="400" r="1.2"/><circle cx="920" cy="400" r="1.2"/><circle cx="960" cy="400" r="1.2"/><circle cx="1000" cy="400" r="1.2"/><circle cx="1040" cy="400" r="1.2"/><circle cx="1080" cy="400" r="1.2"/><circle cx="1120" cy="400" r="1.2"/><circle cx="1160" cy="400" r="1.2"/>
      <circle cx="40" cy="440" r="1.2"/><circle cx="80" cy="440" r="1.2"/><circle cx="120" cy="440" r="1.2"/><circle cx="160" cy="440" r="1.2"/><circle cx="200" cy="440" r="1.2"/><circle cx="240" cy="440" r="1.2"/><circle cx="280" cy="440" r="1.2"/><circle cx="320" cy="440" r="1.2"/><circle cx="360" cy="440" r="1.2"/><circle cx="400" cy="440" r="1.2"/><circle cx="440" cy="440" r="1.2"/><circle cx="480" cy="440" r="1.2"/><circle cx="520" cy="440" r="1.2"/><circle cx="560" cy="440" r="1.2"/><circle cx="600" cy="440" r="1.2"/><circle cx="640" cy="440" r="1.2"/><circle cx="680" cy="440" r="1.2"/><circle cx="720" cy="440" r="1.2"/><circle cx="760" cy="440" r="1.2"/><circle cx="800" cy="440" r="1.2"/><circle cx="840" cy="440" r="1.2"/><circle cx="880" cy="440" r="1.2"/><circle cx="920" cy="440" r="1.2"/><circle cx="960" cy="440" r="1.2"/><circle cx="1000" cy="440" r="1.2"/><circle cx="1040" cy="440" r="1.2"/><circle cx="1080" cy="440" r="1.2"/><circle cx="1120" cy="440" r="1.2"/><circle cx="1160" cy="440" r="1.2"/>
      <circle cx="40" cy="480" r="1.2"/><circle cx="80" cy="480" r="1.2"/><circle cx="120" cy="480" r="1.2"/><circle cx="160" cy="480" r="1.2"/><circle cx="200" cy="480" r="1.2"/><circle cx="240" cy="480" r="1.2"/><circle cx="280" cy="480" r="1.2"/><circle cx="320" cy="480" r="1.2"/><circle cx="360" cy="480" r="1.2"/><circle cx="400" cy="480" r="1.2"/><circle cx="440" cy="480" r="1.2"/><circle cx="480" cy="480" r="1.2"/><circle cx="520" cy="480" r="1.2"/><circle cx="560" cy="480" r="1.2"/><circle cx="600" cy="480" r="1.2"/><circle cx="640" cy="480" r="1.2"/><circle cx="680" cy="480" r="1.2"/><circle cx="720" cy="480" r="1.2"/><circle cx="760" cy="480" r="1.2"/><circle cx="800" cy="480" r="1.2"/><circle cx="840" cy="480" r="1.2"/><circle cx="880" cy="480" r="1.2"/><circle cx="920" cy="480" r="1.2"/><circle cx="960" cy="480" r="1.2"/><circle cx="1000" cy="480" r="1.2"/><circle cx="1040" cy="480" r="1.2"/><circle cx="1080" cy="480" r="1.2"/><circle cx="1120" cy="480" r="1.2"/><circle cx="1160" cy="480" r="1.2"/>
      <circle cx="40" cy="520" r="1.2"/><circle cx="80" cy="520" r="1.2"/><circle cx="120" cy="520" r="1.2"/><circle cx="160" cy="520" r="1.2"/><circle cx="200" cy="520" r="1.2"/><circle cx="240" cy="520" r="1.2"/><circle cx="280" cy="520" r="1.2"/><circle cx="320" cy="520" r="1.2"/><circle cx="360" cy="520" r="1.2"/><circle cx="400" cy="520" r="1.2"/><circle cx="440" cy="520" r="1.2"/><circle cx="480" cy="520" r="1.2"/><circle cx="520" cy="520" r="1.2"/><circle cx="560" cy="520" r="1.2"/><circle cx="600" cy="520" r="1.2"/><circle cx="640" cy="520" r="1.2"/><circle cx="680" cy="520" r="1.2"/><circle cx="720" cy="520" r="1.2"/><circle cx="760" cy="520" r="1.2"/><circle cx="800" cy="520" r="1.2"/><circle cx="840" cy="520" r="1.2"/><circle cx="880" cy="520" r="1.2"/><circle cx="920" cy="520" r="1.2"/><circle cx="960" cy="520" r="1.2"/><circle cx="1000" cy="520" r="1.2"/><circle cx="1040" cy="520" r="1.2"/><circle cx="1080" cy="520" r="1.2"/><circle cx="1120" cy="520" r="1.2"/><circle cx="1160" cy="520" r="1.2"/>
      <circle cx="40" cy="560" r="1.2"/><circle cx="80" cy="560" r="1.2"/><circle cx="120" cy="560" r="1.2"/><circle cx="160" cy="560" r="1.2"/><circle cx="200" cy="560" r="1.2"/><circle cx="240" cy="560" r="1.2"/><circle cx="280" cy="560" r="1.2"/><circle cx="320" cy="560" r="1.2"/><circle cx="360" cy="560" r="1.2"/><circle cx="400" cy="560" r="1.2"/><circle cx="440" cy="560" r="1.2"/><circle cx="480" cy="560" r="1.2"/><circle cx="520" cy="560" r="1.2"/><circle cx="560" cy="560" r="1.2"/><circle cx="600" cy="560" r="1.2"/><circle cx="640" cy="560" r="1.2"/><circle cx="680" cy="560" r="1.2"/><circle cx="720" cy="560" r="1.2"/><circle cx="760" cy="560" r="1.2"/><circle cx="800" cy="560" r="1.2"/><circle cx="840" cy="560" r="1.2"/><circle cx="880" cy="560" r="1.2"/><circle cx="920" cy="560" r="1.2"/><circle cx="960" cy="560" r="1.2"/><circle cx="1000" cy="560" r="1.2"/><circle cx="1040" cy="560" r="1.2"/><circle cx="1080" cy="560" r="1.2"/><circle cx="1120" cy="560" r="1.2"/><circle cx="1160" cy="560" r="1.2"/>
      <circle cx="40" cy="600" r="1.2"/><circle cx="80" cy="600" r="1.2"/><circle cx="120" cy="600" r="1.2"/><circle cx="160" cy="600" r="1.2"/><circle cx="200" cy="600" r="1.2"/><circle cx="240" cy="600" r="1.2"/><circle cx="280" cy="600" r="1.2"/><circle cx="320" cy="600" r="1.2"/><circle cx="360" cy="600" r="1.2"/><circle cx="400" cy="600" r="1.2"/><circle cx="440" cy="600" r="1.2"/><circle cx="480" cy="600" r="1.2"/><circle cx="520" cy="600" r="1.2"/><circle cx="560" cy="600" r="1.2"/><circle cx="600" cy="600" r="1.2"/><circle cx="640" cy="600" r="1.2"/><circle cx="680" cy="600" r="1.2"/><circle cx="720" cy="600" r="1.2"/><circle cx="760" cy="600" r="1.2"/><circle cx="800" cy="600" r="1.2"/><circle cx="840" cy="600" r="1.2"/><circle cx="880" cy="600" r="1.2"/><circle cx="920" cy="600" r="1.2"/><circle cx="960" cy="600" r="1.2"/><circle cx="1000" cy="600" r="1.2"/><circle cx="1040" cy="600" r="1.2"/><circle cx="1080" cy="600" r="1.2"/><circle cx="1120" cy="600" r="1.2"/><circle cx="1160" cy="600" r="1.2"/>
    </g>
  </g>

  <!-- Ambient glow effects -->
  <ellipse cx="350" cy="300" rx="300" ry="250" fill="url(#glowGreen)" />
  <ellipse cx="850" cy="330" rx="350" ry="280" fill="url(#glowBlue)" />

  <!-- Top accent line -->
  <rect x="100" y="0" width="1000" height="3" fill="url(#accentLine)" rx="1.5" />

  <!-- Decorative code bracket - left -->
  <g transform="translate(95, 230)" opacity="0.2">
    <text font-family="'SF Mono', 'Fira Code', 'Courier New', monospace" font-size="180" font-weight="300" fill="#39d353">{</text>
  </g>

  <!-- Decorative code bracket - right -->
  <g transform="translate(1020, 230)" opacity="0.2">
    <text font-family="'SF Mono', 'Fira Code', 'Courier New', monospace" font-size="180" font-weight="300" fill="#39d353">}</text>
  </g>

  <!-- Decorative geometric shapes - left side -->
  <!-- Wrench/tool icon (simplified) -->
  <g transform="translate(140, 160)" opacity="0.12">
    <rect x="0" y="0" width="28" height="28" rx="4" fill="none" stroke="#58a6ff" stroke-width="2"/>
    <line x1="6" y1="14" x2="22" y2="14" stroke="#58a6ff" stroke-width="2"/>
    <line x1="14" y1="6" x2="14" y2="22" stroke="#58a6ff" stroke-width="2"/>
  </g>

  <!-- Terminal icon -->
  <g transform="translate(100, 440)" opacity="0.12">
    <rect x="0" y="0" width="36" height="28" rx="4" fill="none" stroke="#39d353" stroke-width="2"/>
    <polyline points="8,10 16,16 8,22" fill="none" stroke="#39d353" stroke-width="2"/>
    <line x1="18" y1="22" x2="28" y2="22" stroke="#39d353" stroke-width="2"/>
  </g>

  <!-- Gear icon -->
  <g transform="translate(180, 100)" opacity="0.1">
    <circle cx="16" cy="16" r="10" fill="none" stroke="#58a6ff" stroke-width="2"/>
    <circle cx="16" cy="16" r="4" fill="none" stroke="#58a6ff" stroke-width="2"/>
  </g>

  <!-- Decorative geometric shapes - right side -->
  <!-- Code slash icon -->
  <g transform="translate(1040, 150)" opacity="0.12">
    <polyline points="0,20 10,0" fill="none" stroke="#39d353" stroke-width="2"/>
    <polyline points="20,0 30,20" fill="none" stroke="#39d353" stroke-width="2"/>
  </g>

  <!-- Hexagon -->
  <g transform="translate(1060, 440)" opacity="0.1">
    <polygon points="20,0 38,10 38,30 20,40 2,30 2,10" fill="none" stroke="#58a6ff" stroke-width="2"/>
  </g>

  <!-- Diamond -->
  <g transform="translate(1000, 100)" opacity="0.1">
    <polygon points="16,0 32,16 16,32 0,16" fill="none" stroke="#39d353" stroke-width="2"/>
  </g>

  <!-- Small floating dots - decorative -->
  <circle cx="250" cy="150" r="3" fill="#39d353" opacity="0.15"/>
  <circle cx="950" cy="200" r="4" fill="#58a6ff" opacity="0.12"/>
  <circle cx="300" cy="480" r="3" fill="#58a6ff" opacity="0.1"/>
  <circle cx="900" cy="500" r="3" fill="#39d353" opacity="0.12"/>
  <circle cx="500" cy="120" r="2" fill="#39d353" opacity="0.18"/>
  <circle cx="700" cy="530" r="2" fill="#58a6ff" opacity="0.15"/>

  <!-- Main title: SPUNK.CODES -->
  <text x="600" y="275" text-anchor="middle" font-family="-apple-system, BlinkMacSystemFont, 'Segoe UI', Helvetica, Arial, sans-serif" font-size="88" font-weight="800" fill="#ffffff" letter-spacing="4">
    SPUNK<tspan fill="#39d353">.</tspan>CODES
  </text>

  <!-- Underline accent below title -->
  <rect x="380" y="295" width="440" height="3" rx="1.5" fill="url(#accentLine)" opacity="0.6"/>

  <!-- Tagline -->
  <text x="600" y="350" text-anchor="middle" font-family="-apple-system, BlinkMacSystemFont, 'Segoe UI', Helvetica, Arial, sans-serif" font-size="32" font-weight="500" fill="#58a6ff" letter-spacing="1">
    300+ Free Developer &amp; Business Tools
  </text>

  <!-- Sub-tagline -->
  <text x="600" y="400" text-anchor="middle" font-family="-apple-system, BlinkMacSystemFont, 'Segoe UI', Helvetica, Arial, sans-serif" font-size="20" font-weight="400" fill="#8b949e" letter-spacing="0.5">
    No Sign-Up  |  No Paywall  |  Ship Faster
  </text>

  <!-- Pill badges row -->
  <!-- Free Tools badge -->
  <rect x="320" y="440" width="140" height="36" rx="18" fill="none" stroke="#39d353" stroke-width="1.5" opacity="0.5"/>
  <text x="390" y="464" text-anchor="middle" font-family="-apple-system, BlinkMacSystemFont, 'Segoe UI', Helvetica, Arial, sans-serif" font-size="14" font-weight="600" fill="#39d353" opacity="0.7">300+ FREE</text>

  <!-- Premium badge -->
  <rect x="490" y="440" width="140" height="36" rx="18" fill="none" stroke="#58a6ff" stroke-width="1.5" opacity="0.5"/>
  <text x="560" y="464" text-anchor="middle" font-family="-apple-system, BlinkMacSystemFont, 'Segoe UI', Helvetica, Arial, sans-serif" font-size="14" font-weight="600" fill="#58a6ff" opacity="0.7">45 PREMIUM</text>

  <!-- Zero BS badge -->
  <rect x="660" y="440" width="140" height="36" rx="18" fill="none" stroke="#39d353" stroke-width="1.5" opacity="0.5"/>
  <text x="730" y="464" text-anchor="middle" font-family="-apple-system, BlinkMacSystemFont, 'Segoe UI', Helvetica, Arial, sans-serif" font-size="14" font-weight="600" fill="#39d353" opacity="0.7">ZERO BS</text>

  <!-- URL at bottom -->
  <text x="600" y="560" text-anchor="middle" font-family="'SF Mono', 'Fira Code', 'Courier New', monospace" font-size="18" font-weight="400" fill="#8b949e" opacity="0.6" letter-spacing="2">
    spunk.codes
  </text>

  <!-- Bottom accent line -->
  <rect x="100" y="627" width="1000" height="3" fill="url(#bottomLine)" rx="1.5" />

  <!-- Subtle border -->
  <rect x="0" y="0" width="1200" height="630" fill="none" stroke="#21262d" stroke-width="1" rx="0"/>
</svg>